<svg version="1.1" xmlns="http://www.w3.org/2000/svg" viewBox="0 0 1332.5419605488937 670.5870832053693" width="1332.5419605488937" height="670.5870832053693" style="background-color: #ffffff;">
  <!-- svg-source:excalidraw -->
  
  <defs>
    <style class="style-fonts">
      @font-face {
        font-family: "Virgil";
        src: url("https://excalidraw.com/Virgil.woff2");
      }
      @font-face {
        font-family: "Cascadia";
        src: url("https://excalidraw.com/Cascadia.woff2");
      }
    </style>
  </defs>
  <g stroke-linecap="round" transform="translate(579 345.70218183790377) rotate(0 42 42)"><path d="M0.89 1.47 C18.82 -0.06, 39.54 -0.09, 84.81 -1.81 M-0.75 -0.61 C24.04 0, 50.03 -0.58, 84.6 -0.69 M82.07 -1.1 C84.31 20.7, 85.6 43.15, 82.84 84.69 M84.38 -0.16 C84.29 24.75, 83.92 50.56, 84.79 84.95 M85.24 84.51 C65.23 85.29, 44.31 85.45, 0.42 84.42 M84 83.9 C58.7 83.21, 33.12 83.64, -0.4 83.83 M-0.89 82.77 C-1.64 56.27, -1.94 28.05, -0.02 1.83 M-0.73 84.39 C0.91 51.45, -0.14 18.76, 0.96 -0.84" stroke="#000000" stroke-width="1" fill="none"></path></g><g transform="translate(611.3680038452148 370.9021818379038) rotate(0 9.631996154785156 16.80000000000001)"><text x="9.631996154785156" y="0" font-family="Virgil, Segoe UI Emoji" font-size="28px" fill="#000000" text-anchor="middle" style="white-space: pre;" direction="ltr" dominant-baseline="text-before-edge">0</text></g><g stroke-linecap="round" transform="translate(663 345.70218183790377) rotate(0 42 42)"><path d="M-0.07 0.55 C32.21 -2.06, 62.75 0.72, 85.28 -1.5 M-0.05 -0.04 C20.67 -1.14, 39.68 -0.13, 83.16 -0.97 M85.33 0.53 C82.85 21.27, 84.07 40.53, 83.6 84.75 M84.18 -0.33 C85.25 24.77, 83.72 47.63, 83.49 84.62 M82.2 85.88 C57.08 85.14, 29.35 85.11, -1.15 84 M83.8 84.13 C59.28 83.57, 35.68 84.72, -0.84 83.55 M-1.12 83.89 C0.32 65.79, 2.23 44.05, -1.89 -1.46 M-0.08 85 C0.15 54.66, -0.07 27.83, -0.5 0.35" stroke="#000000" stroke-width="1" fill="none"></path></g><g transform="translate(701.2060012817383 370.9021818379038) rotate(0 3.7939987182617188 16.80000000000001)"><text x="3.7939987182617188" y="0" font-family="Virgil, Segoe UI Emoji" font-size="28px" fill="#000000" text-anchor="middle" style="white-space: pre;" direction="ltr" dominant-baseline="text-before-edge">1</text></g><g stroke-linecap="round" transform="translate(747 345.70218183790377) rotate(0 42 42)"><path d="M-0.04 0.97 C28.79 -0.74, 53.8 -1.23, 85.08 -0.09 M-0.46 0.33 C24 -0.39, 49.13 0.6, 83.7 0.66 M84.06 -0.62 C83.11 28.2, 83.18 55.99, 82.61 84.35 M83.26 -0.03 C84.16 23.01, 84.92 44.87, 84.86 83.1 M84.03 84.39 C49.77 84.17, 17.62 84.25, -0.62 83.61 M84.32 84.98 C56.89 83.41, 30.85 83.45, 0.09 83.44 M1.88 84.14 C-1.88 57.82, 0.8 36.49, 1.13 -0.16 M0.75 84.83 C-1.3 50.79, -0.04 17.73, -0.83 0.54" stroke="#000000" stroke-width="1" fill="none"></path></g><g transform="translate(779.3680038452148 370.9021818379038) rotate(0 9.631996154785156 16.80000000000001)"><text x="9.631996154785156" y="0" font-family="Virgil, Segoe UI Emoji" font-size="28px" fill="#000000" text-anchor="middle" style="white-space: pre;" direction="ltr" dominant-baseline="text-before-edge">0</text></g><g stroke-linecap="round" transform="translate(832 344.70218183790377) rotate(0 42 42)"><path d="M-1.22 -1.99 C30.36 0.54, 58.47 1.84, 82.62 -0.93 M-0.55 0.02 C27.64 1.47, 56.16 0.23, 84.35 0.03 M83.67 1.1 C82.44 22.96, 83.16 46.81, 85.89 82.51 M84.25 0.08 C84.43 24.06, 84.51 50.13, 84.21 84.02 M83.79 84.07 C56.54 83.6, 30.58 83.21, -0.34 84.65 M83.39 83.59 C50.67 83.06, 17.1 83.61, 0.92 84.94 M0.79 85.93 C1.92 58.06, 2.78 34.36, -1.68 1.49 M0.77 84.85 C-0.41 52.35, 0.55 20.53, -0.34 0.98" stroke="#000000" stroke-width="1" fill="none"></path></g><g transform="translate(864.3680038452148 369.9021818379038) rotate(0 9.631996154785156 16.80000000000001)"><text x="9.631996154785156" y="0" font-family="Virgil, Segoe UI Emoji" font-size="28px" fill="#000000" text-anchor="middle" style="white-space: pre;" direction="ltr" dominant-baseline="text-before-edge">0</text></g><g stroke-linecap="round" transform="translate(916 344.70218183790377) rotate(0 42 42)"><path d="M-0.09 1.2 C15.48 -0.89, 34.36 -1.64, 82.07 -1.1 M0.27 -0.58 C25.69 -0.53, 50.37 -0.76, 84.38 -0.16 M83.33 1.58 C85.31 28.33, 83.36 58.62, 85.24 84.51 M84.94 0.21 C84.93 25.93, 84.91 51.24, 84 83.9 M84.25 83.21 C58.15 84.48, 34.93 82.15, -0.89 82.77 M83.94 83.99 C63.13 84.47, 40.5 82.59, -0.73 84.39 M1.99 85.92 C-2.16 52.18, 1.19 16.38, 0.7 1.54 M0.13 84.9 C0.36 52.61, 0.78 18.9, -0.2 -0.17" stroke="#000000" stroke-width="1" fill="none"></path></g><g transform="translate(948.3680038452148 369.9021818379038) rotate(0 9.631996154785156 16.80000000000001)"><text x="9.631996154785156" y="0" font-family="Virgil, Segoe UI Emoji" font-size="28px" fill="#000000" text-anchor="middle" style="white-space: pre;" direction="ltr" dominant-baseline="text-before-edge">0</text></g><g stroke-linecap="round" transform="translate(1000 344.70218183790377) rotate(0 42 42)"><path d="M0.65 -1.68 C28.33 -0.71, 60.55 -0.22, 85.33 0.53 M-0.31 -0.2 C20.69 -0.19, 41.18 -0.72, 84.18 -0.33 M83.94 -1.01 C86.04 32.36, 84.96 65.41, 82.2 85.88 M84.19 -0.57 C84.17 26.85, 84.21 53.6, 83.8 84.13 M85.96 82.32 C61.23 83.04, 39.43 84.46, -1.12 83.89 M84.07 83.06 C58.17 85.18, 34.76 85.36, -0.08 85 M1.66 83 C1.41 52.28, 2.42 15.81, 1.07 0.26 M0.09 83.66 C0.09 51.11, -0.69 19.28, -0.45 0.11" stroke="#000000" stroke-width="1" fill="none"></path></g><g transform="translate(1038.2060012817383 369.9021818379038) rotate(0 3.7939987182617188 16.80000000000001)"><text x="3.7939987182617188" y="0" font-family="Virgil, Segoe UI Emoji" font-size="28px" fill="#000000" text-anchor="middle" style="white-space: pre;" direction="ltr" dominant-baseline="text-before-edge">1</text></g><g stroke-linecap="round" transform="translate(740 426.33326893133875) rotate(0 7 7)"><path d="M2.62 2.28 C2.62 2.28, 2.62 2.28, 2.62 2.28 M2.62 2.28 C2.62 2.28, 2.62 2.28, 2.62 2.28 M3.32 8.18 C4.8 5.52, 7.48 3.64, 8.7 2.14 M2.69 7.93 C4.67 6.44, 5.88 5.02, 8.39 1.91 M2.38 14.27 C5.76 11.89, 9.38 6.13, 13.58 2.95 M3.49 13.06 C5.14 10.78, 7.51 9.19, 12.29 3.68 M8.48 14.45 C10.75 12.23, 13.36 9.5, 15.47 6.3 M7.93 14.84 C9.19 11.91, 11.58 9.59, 15.47 6.15" stroke="#868e96" stroke-width="0.5" fill="none"></path><path d="M6.09 0.22 C7.56 0.06, 10.04 0.95, 11.42 1.79 C12.8 2.63, 13.96 3.89, 14.37 5.26 C14.78 6.62, 14.62 8.61, 13.89 9.98 C13.17 11.35, 11.42 13.03, 10.02 13.5 C8.62 13.98, 7.03 13.18, 5.47 12.85 C3.91 12.51, 1.5 12.68, 0.66 11.49 C-0.19 10.29, 0.04 7.25, 0.39 5.68 C0.74 4.12, 1.65 3.21, 2.77 2.1 C3.89 0.99, 6.52 -0.72, 7.11 -0.98 C7.7 -1.23, 6.2 0.12, 6.3 0.57" stroke="#000000" stroke-width="1.5" fill="none" stroke-dasharray="8 9"></path></g><g transform="translate(700.243483737396 636.5870832053693) rotate(0 24.66998291015625 12)"><text x="0" y="0" font-family="Virgil, Segoe UI Emoji" font-size="20px" fill="#000000" text-anchor="start" style="white-space: pre;" direction="ltr" dominant-baseline="text-before-edge">Koma</text></g><g stroke-linecap="round"><g transform="translate(746.6267917942977 627.7425925723992) rotate(0 -15.008278751275043 -87.71116048095502)"><path d="M-0.97 0.04 C-5.74 -18.36, -28.96 -80.16, -29.05 -109.41 C-29.13 -138.66, -6.13 -164.28, -1.49 -175.47" stroke="#000000" stroke-width="1.5" fill="none" stroke-dasharray="8 9"></path></g><g transform="translate(746.6267917942977 627.7425925723992) rotate(0 -15.008278751275043 -87.71116048095502)"><path d="M-6.82 -144.78 C-4.78 -153.55, -2.39 -160.97, -1.35 -175.67" stroke="#000000" stroke-width="1.5" fill="none"></path></g><g transform="translate(746.6267917942977 627.7425925723992) rotate(0 -15.008278751275043 -87.71116048095502)"><path d="M-24.53 -155.15 C-17.68 -161.02, -10.58 -165.68, -1.35 -175.67" stroke="#000000" stroke-width="1.5" fill="none"></path></g></g><mask></mask><g stroke-linecap="round" transform="translate(325 345.70218183790377) rotate(0 42 42)"><path d="M0.03 -0.61 C19.48 1, 35.14 1.16, 84.06 -0.62 M0.55 -0.7 C23.69 -0.2, 47.82 1.08, 83.26 -0.03 M84.17 1.71 C82.72 22.82, 84.94 42.31, 84.03 84.39 M84.04 -0.31 C83.8 20.5, 83.6 40.59, 84.32 84.98 M83.19 84.19 C64.73 83.37, 47.69 85.32, 1.88 84.14 M84.97 84.57 C66.64 85.33, 50.41 83.49, 0.75 84.83 M1.71 82.34 C0.78 63.24, 1.5 41.29, 1.97 0.17 M-0.97 84.73 C-0.29 61.77, 0.64 39.87, -0.03 -0.31" stroke="#000000" stroke-width="1" fill="none"></path></g><g transform="translate(363.2060012817383 370.9021818379038) rotate(0 3.7939987182617188 16.80000000000001)"><text x="3.7939987182617188" y="0" font-family="Virgil, Segoe UI Emoji" font-size="28px" fill="#000000" text-anchor="middle" style="white-space: pre;" direction="ltr" dominant-baseline="text-before-edge">1</text></g><g stroke-linecap="round" transform="translate(409 345.70218183790377) rotate(0 42 42)"><path d="M-1.16 0.69 C22.71 -0.84, 44.9 0.53, 83.67 1.1 M0.79 0.95 C18.6 0.25, 38.19 0.9, 84.25 0.08 M84.42 0.42 C83.28 32.79, 82.09 64.79, 83.79 84.07 M83.6 -0.17 C84.16 23.57, 82.99 44.74, 83.39 83.59 M83.98 85.83 C59.9 84.09, 30.15 82.49, 0.79 85.93 M84.96 83.16 C54.79 85.67, 23.6 85.19, 0.77 84.85 M1.79 83.32 C1.52 65.96, -1.13 47.19, -0.33 -1.94 M0.47 84.55 C0.35 52.39, -0.57 21.86, -0.72 -0.64" stroke="#000000" stroke-width="1" fill="none"></path></g><g transform="translate(441.36800384521484 370.9021818379038) rotate(0 9.631996154785156 16.80000000000001)"><text x="9.631996154785156" y="0" font-family="Virgil, Segoe UI Emoji" font-size="28px" fill="#000000" text-anchor="middle" style="white-space: pre;" direction="ltr" dominant-baseline="text-before-edge">0</text></g><g stroke-linecap="round" transform="translate(493 345.70218183790377) rotate(0 42 42)"><path d="M-0.4 0.75 C27.79 1.36, 54.84 0.61, 83.33 1.58 M-0.51 0.62 C33.41 0.11, 67.16 -0.88, 84.94 0.21 M82.85 0 C83.81 27.02, 83.39 53.5, 84.25 83.21 M83.16 -0.45 C83.66 23.37, 84.36 46.99, 83.94 83.99 M82.11 82.54 C51.88 85.99, 19.32 83.89, 1.99 85.92 M83.5 84.35 C66.65 85.55, 46.92 85.24, 0.13 84.9 M-0.68 83.61 C-1.16 59.72, 0.63 38.42, 0.21 0.94 M-0.95 84.46 C-0.7 53.53, 0.56 25, 0.79 0.75" stroke="#000000" stroke-width="1" fill="none"></path></g><g transform="translate(525.3680038452148 370.9021818379038) rotate(0 9.631996154785156 16.80000000000001)"><text x="9.631996154785156" y="0" font-family="Virgil, Segoe UI Emoji" font-size="28px" fill="#000000" text-anchor="middle" style="white-space: pre;" direction="ltr" dominant-baseline="text-before-edge">0</text></g><g stroke-linecap="round" transform="translate(591.2331532007618 82.10946095531364) rotate(0 42 42)"><path d="M0.02 1.7 C24.88 -1.34, 52.55 -0.49, 85.55 -0.48 M0.12 -0.71 C28.69 -0.84, 58.63 -0.33, 84.28 -0.59 M83.95 1.36 C83.68 17.99, 85.95 34.68, 84.98 85.13 M84.7 0.51 C83.81 25.21, 84.72 49.84, 84.16 83.37 M83.07 84.6 C51.68 84.46, 20.13 85.65, -0.74 85.01 M83.09 84.78 C51.01 83.48, 19.73 82.73, -0.44 84.58 M-0.21 83.93 C1.78 61.46, -1.51 36.47, -1.96 -1.86 M-0.79 83.32 C0.31 59.12, 0.85 33.08, 0.39 -0.64" stroke="#000000" stroke-width="1" fill="none"></path></g><g transform="translate(623.6011570459766 107.30946095531368) rotate(0 9.631996154785156 16.80000000000001)"><text x="9.631996154785156" y="0" font-family="Virgil, Segoe UI Emoji" font-size="28px" fill="#000000" text-anchor="middle" style="white-space: pre;" direction="ltr" dominant-baseline="text-before-edge">0</text></g><g stroke-linecap="round" transform="translate(675.2331532007618 82.10946095531364) rotate(0 42 42)"><path d="M-1.6 -1.56 C22.58 -1.42, 47.56 -1.2, 84.96 -0.51 M-0.53 -0.2 C31.79 0.9, 63.45 0, 83.01 0.48 M83.28 1.13 C85.53 32.41, 84.96 64.04, 83.89 85.59 M83.14 0.46 C84.64 30.69, 84.75 60.04, 84.81 84.25 M83.66 84.79 C62.1 86.23, 39.29 85.26, 1.7 84.87 M83.35 84.3 C67.38 84.21, 49.49 85.24, -0.13 83.73 M1.55 85.56 C-1.65 59.39, -1.87 31.58, 0.11 -0.5 M0.1 84.79 C1.31 62.05, 1.06 38.6, -0.04 -0.22" stroke="#000000" stroke-width="1" fill="none"></path></g><g transform="translate(713.4391544825 107.30946095531368) rotate(0 3.7939987182617188 16.80000000000001)"><text x="3.7939987182617188" y="0" font-family="Virgil, Segoe UI Emoji" font-size="28px" fill="#000000" text-anchor="middle" style="white-space: pre;" direction="ltr" dominant-baseline="text-before-edge">1</text></g><g stroke-linecap="round" transform="translate(759.2331532007618 82.10946095531364) rotate(0 42 42)"><path d="M-0.43 -0.71 C33.89 0.17, 65.63 0.15, 85.52 0.25 M0.2 0.31 C19.54 -0.42, 37.51 0.65, 84.74 -0.02 M85.55 0.96 C84.68 32.03, 83.59 63.38, 85.22 85.4 M84.05 0.35 C83.45 28.83, 84.09 59.17, 83.62 83.53 M84.09 85.97 C55.52 85.34, 30.22 85.2, -1.94 82.18 M84.42 83.55 C51.77 84.83, 20.3 83.98, 0.01 83.89 M-1.74 84.67 C-2.61 57.26, -0.54 33.73, -0.67 -1.58 M0.65 84.43 C0.31 63.9, -0.13 44.87, 0.77 -0.81" stroke="#000000" stroke-width="1" fill="none"></path></g><g transform="translate(791.6011570459766 107.30946095531368) rotate(0 9.631996154785156 16.80000000000001)"><text x="9.631996154785156" y="0" font-family="Virgil, Segoe UI Emoji" font-size="28px" fill="#000000" text-anchor="middle" style="white-space: pre;" direction="ltr" dominant-baseline="text-before-edge">0</text></g><g stroke-linecap="round" transform="translate(844.2331532007618 81.10946095531364) rotate(0 42 42)"><path d="M-0.52 1.25 C30.28 -0.2, 57.6 1.86, 84.56 0.74 M0.63 0.62 C24.98 -1.14, 48.29 0.26, 83.16 0.65 M82.79 -1.13 C86.02 26.11, 85.13 48.12, 85.96 85.81 M84.39 -0.18 C84.45 32.29, 85.27 63.58, 84.37 84.44 M84.89 82.78 C51.8 82.67, 22.65 82.76, -1.66 85.28 M84.29 83.93 C52.57 83.23, 19.02 83.93, -0.47 83.12 M-0.86 82.33 C-0.5 59.8, -1.99 38.93, 0.08 1.72 M0.46 83.88 C0.55 54.22, -0.72 26.12, 0.64 0.64" stroke="#000000" stroke-width="1" fill="none"></path></g><g transform="translate(876.6011570459766 106.30946095531368) rotate(0 9.631996154785156 16.80000000000001)"><text x="9.631996154785156" y="0" font-family="Virgil, Segoe UI Emoji" font-size="28px" fill="#000000" text-anchor="middle" style="white-space: pre;" direction="ltr" dominant-baseline="text-before-edge">0</text></g><g stroke-linecap="round" transform="translate(928.2331532007618 81.10946095531364) rotate(0 42 42)"><path d="M-1.67 0.22 C31 -0.92, 65.33 0.44, 85.72 0.88 M-0.12 0.73 C26.1 -0.92, 53.89 0.26, 84.64 0.07 M82.73 0.12 C83.85 23.9, 82.25 47.59, 83.09 82.61 M83.34 -0.72 C83.45 30.33, 82.84 61.83, 84.91 84.62 M82.56 84.65 C52.83 82.85, 22.57 81.33, 0.19 83.26 M83.89 84.91 C56.74 83.84, 26.96 83.7, -0.97 83.26 M-0.74 85.52 C0.1 66.21, -0.27 46.95, 0.2 -1.45 M0.31 84.82 C0.38 55.09, -0.45 23.92, 0.54 -0.45" stroke="#000000" stroke-width="1" fill="none"></path></g><g transform="translate(960.6011570459766 106.30946095531368) rotate(0 9.631996154785156 16.80000000000001)"><text x="9.631996154785156" y="0" font-family="Virgil, Segoe UI Emoji" font-size="28px" fill="#000000" text-anchor="middle" style="white-space: pre;" direction="ltr" dominant-baseline="text-before-edge">0</text></g><g stroke-linecap="round" transform="translate(1012.2331532007618 81.10946095531364) rotate(0 42 42)"><path d="M-0.13 0.12 C18.81 -0.87, 38.43 -2.35, 83.7 -0.24 M0.85 -0.59 C20.85 -0.6, 42.67 -0.44, 83.36 0.32 M84.43 0.32 C85.64 25.32, 86.19 49.31, 82.93 83.8 M83.81 -0.41 C84.2 29.97, 84.6 61.31, 84.17 83.3 M85.41 82.05 C57.27 82.1, 28.29 83.96, -1.55 83.32 M84.77 83.17 C61.02 83.8, 40.29 84.78, -0.17 84.97 M0.69 85.82 C1.43 66.36, 1.75 50.88, -1.6 -1.66 M-0.81 84.07 C1.53 66.27, 1.58 49.37, 0.29 -0.1" stroke="#000000" stroke-width="1" fill="none"></path></g><g transform="translate(1050.4391544825 106.30946095531368) rotate(0 3.7939987182617188 16.80000000000001)"><text x="3.7939987182617188" y="0" font-family="Virgil, Segoe UI Emoji" font-size="28px" fill="#000000" text-anchor="middle" style="white-space: pre;" direction="ltr" dominant-baseline="text-before-edge">1</text></g><g stroke-linecap="round" transform="translate(337.23315320076176 82.10946095531364) rotate(0 42 42)"><path d="M1.24 -0.54 C33.26 0.72, 63.91 -1.56, 83.67 1.73 M0.74 -0.19 C22.57 0.68, 47.14 0.12, 84.28 0.41 M83.06 -1.52 C83.8 32.84, 82.16 67.61, 85.27 83.91 M83.47 -0.66 C85.73 23.57, 84.79 47.98, 84.32 84.75 M84.84 84.13 C54.41 84.56, 28.72 83.56, 1.79 82.85 M84.99 83.36 C52.89 84.85, 20.65 84.63, 0.33 84.92 M0.42 82.2 C0.62 54.7, -0.92 26.44, 1.81 -0.65 M-0.37 84.29 C-1.45 58.38, -1.02 31.92, 0.89 0.2" stroke="#000000" stroke-width="1" fill="none"></path></g><g transform="translate(375.43915448250004 107.30946095531368) rotate(0 3.7939987182617188 16.80000000000001)"><text x="3.7939987182617188" y="0" font-family="Virgil, Segoe UI Emoji" font-size="28px" fill="#000000" text-anchor="middle" style="white-space: pre;" direction="ltr" dominant-baseline="text-before-edge">1</text></g><g stroke-linecap="round" transform="translate(421.23315320076176 82.10946095531364) rotate(0 42 42)"><path d="M1.96 0.65 C25.81 -1.4, 48.68 1.95, 83.58 1.47 M-0.86 -0.09 C17.7 -0.49, 35.15 0.57, 84.91 -0.08 M83.86 -0.01 C81.83 20.32, 84.88 36.72, 83.71 85.78 M84.99 -0.41 C83.6 26.75, 83.88 54.22, 84.32 83.22 M82.3 85.31 C66.84 84.37, 50.44 82.9, 1.55 85.24 M84.59 84.51 C55.44 83.75, 27.1 84.38, 0.44 84.7 M1.21 83.59 C-0.51 65.52, 1.63 45.94, 0.25 1.36 M-0.88 84.62 C-0.14 64.56, 1.2 44.53, 0.44 -0.58" stroke="#000000" stroke-width="1" fill="none"></path></g><g transform="translate(453.6011570459766 107.30946095531368) rotate(0 9.631996154785156 16.80000000000001)"><text x="9.631996154785156" y="0" font-family="Virgil, Segoe UI Emoji" font-size="28px" fill="#000000" text-anchor="middle" style="white-space: pre;" direction="ltr" dominant-baseline="text-before-edge">0</text></g><g stroke-linecap="round" transform="translate(505.23315320076176 82.10946095531364) rotate(0 42 42)"><path d="M1.3 -1.63 C22.6 1.45, 45.43 1.19, 82.15 1.47 M0.27 -0.65 C23.87 0.49, 48.08 0, 83.19 -0.47 M82.23 1.91 C85.21 18.73, 83.65 39.41, 84.37 82.94 M84.04 0.01 C85.15 20.38, 85.15 38.48, 83.1 84.42 M84.52 84.32 C60.06 83.4, 34.09 85.79, 0.81 85.98 M84.05 84.29 C64.49 85.35, 44.77 85.13, -0.77 84.21 M-0.33 84.23 C1.3 65.7, -0.26 50.05, -1.28 -0.74 M-0.45 84.4 C1.63 56.6, 1.18 28.22, 0.57 0.49" stroke="#000000" stroke-width="1" fill="none"></path></g><g transform="translate(537.6011570459766 107.30946095531368) rotate(0 9.631996154785156 16.80000000000001)"><text x="9.631996154785156" y="0" font-family="Virgil, Segoe UI Emoji" font-size="28px" fill="#000000" text-anchor="middle" style="white-space: pre;" direction="ltr" dominant-baseline="text-before-edge">0</text></g><g transform="translate(64.23315320076176 111.10946095531364) rotate(0 107.19794464111328 16.80000000000001)"><text x="0" y="0" font-family="Virgil, Segoe UI Emoji" font-size="28px" fill="#000000" text-anchor="start" style="white-space: pre;" direction="ltr" dominant-baseline="text-before-edge">unsigned integer</text></g><g transform="translate(10 368.70218183790377) rotate(0 138.1099090576172 16.80000000000001)"><text x="0" y="0" font-family="Virgil, Segoe UI Emoji" font-size="28px" fill="#000000" text-anchor="start" style="white-space: pre;" direction="ltr" dominant-baseline="text-before-edge">fixed-point {i:5, f:4}</text></g><g transform="translate(364.9026493696672 185.14765923553625) rotate(0 9.967994689941406 16.80000000000001)"><text x="0" y="0" font-family="Virgil, Segoe UI Emoji" font-size="28px" fill="#000000" text-anchor="start" style="white-space: pre;" direction="ltr" dominant-baseline="text-before-edge">2</text></g><g transform="translate(378.9026493696672 176.34765923553624) rotate(0 6.1199951171875 9.599999999999994)"><text x="0" y="0" font-family="Virgil, Segoe UI Emoji" font-size="16px" fill="#000000" text-anchor="start" style="white-space: pre;" direction="ltr" dominant-baseline="text-before-edge">8</text></g><g transform="translate(452.07187157315536 185.8341324178739) rotate(0 9.967994689941406 16.80000000000001)"><text x="0" y="0" font-family="Virgil, Segoe UI Emoji" font-size="28px" fill="#000000" text-anchor="start" style="white-space: pre;" direction="ltr" dominant-baseline="text-before-edge">2</text></g><g transform="translate(466.07187157315536 178.36463624896857) rotate(0 4.303993225097656 9.599999999999994)"><text x="0" y="0" font-family="Virgil, Segoe UI Emoji" font-size="16px" fill="#000000" text-anchor="start" style="white-space: pre;" direction="ltr" dominant-baseline="text-before-edge">7</text></g><g transform="translate(535.914834198907 185.85535368466418) rotate(0 9.967994689941406 16.80000000000001)"><text x="0" y="0" font-family="Virgil, Segoe UI Emoji" font-size="28px" fill="#000000" text-anchor="start" style="white-space: pre;" direction="ltr" dominant-baseline="text-before-edge">2</text></g><g transform="translate(549.914834198907 177.05535368466417) rotate(0 5.1199951171875 9.599999999999994)"><text x="0" y="0" font-family="Virgil, Segoe UI Emoji" font-size="16px" fill="#000000" text-anchor="start" style="white-space: pre;" direction="ltr" dominant-baseline="text-before-edge">6</text></g><g transform="translate(620.4230487402059 187.87233069809645) rotate(0 9.967994689941406 16.80000000000001)"><text x="0" y="0" font-family="Virgil, Segoe UI Emoji" font-size="28px" fill="#000000" text-anchor="start" style="white-space: pre;" direction="ltr" dominant-baseline="text-before-edge">2</text></g><g transform="translate(634.4230487402059 179.73758261364372) rotate(0 4.943992614746094 9.599999999999994)"><text x="0" y="0" font-family="Virgil, Segoe UI Emoji" font-size="16px" fill="#000000" text-anchor="start" style="white-space: pre;" direction="ltr" dominant-baseline="text-before-edge">5</text></g><g transform="translate(710.2532786058833 185.23254430269748) rotate(0 9.967994689941406 16.80000000000001)"><text x="0" y="0" font-family="Virgil, Segoe UI Emoji" font-size="28px" fill="#000000" text-anchor="start" style="white-space: pre;" direction="ltr" dominant-baseline="text-before-edge">2</text></g><g transform="translate(724.2532786058833 179.09355196488667) rotate(0 5.1199951171875 9.599999999999994)"><text x="0" y="0" font-family="Virgil, Segoe UI Emoji" font-size="16px" fill="#000000" text-anchor="start" style="white-space: pre;" direction="ltr" dominant-baseline="text-before-edge">4</text></g><g transform="translate(788.108973991709 183.2580098228459) rotate(0 9.967994689941406 16.80000000000001)"><text x="0" y="0" font-family="Virgil, Segoe UI Emoji" font-size="28px" fill="#000000" text-anchor="start" style="white-space: pre;" direction="ltr" dominant-baseline="text-before-edge">2</text></g><g transform="translate(802.108973991709 175.12326173839324) rotate(0 5.447998046875 9.599999999999994)"><text x="0" y="0" font-family="Virgil, Segoe UI Emoji" font-size="16px" fill="#000000" text-anchor="start" style="white-space: pre;" direction="ltr" dominant-baseline="text-before-edge">3</text></g><g transform="translate(875.9222268439541 179.93175024510924) rotate(0 9.967994689941406 16.80000000000001)"><text x="0" y="0" font-family="Virgil, Segoe UI Emoji" font-size="28px" fill="#000000" text-anchor="start" style="white-space: pre;" direction="ltr" dominant-baseline="text-before-edge">2</text></g><g transform="translate(889.9222268439541 171.13175024510923) rotate(0 5.6959991455078125 9.599999999999994)"><text x="0" y="0" font-family="Virgil, Segoe UI Emoji" font-size="16px" fill="#000000" text-anchor="start" style="white-space: pre;" direction="ltr" dominant-baseline="text-before-edge">2</text></g><g transform="translate(958.413464371821 175.27498683627817) rotate(0 9.967994689941406 16.80000000000001)"><text x="0" y="0" font-family="Virgil, Segoe UI Emoji" font-size="28px" fill="#000000" text-anchor="start" style="white-space: pre;" direction="ltr" dominant-baseline="text-before-edge">2</text></g><g transform="translate(972.413464371821 165.80973492073088) rotate(0 2.167999267578125 9.599999999999994)"><text x="0" y="0" font-family="Virgil, Segoe UI Emoji" font-size="16px" fill="#000000" text-anchor="start" style="white-space: pre;" direction="ltr" dominant-baseline="text-before-edge">1</text></g><g transform="translate(1043.5657095618765 175.27498683627812) rotate(0 9.967994689941406 16.80000000000001)"><text x="0" y="0" font-family="Virgil, Segoe UI Emoji" font-size="28px" fill="#000000" text-anchor="start" style="white-space: pre;" direction="ltr" dominant-baseline="text-before-edge">2</text></g><g transform="translate(1057.5657095618765 166.4749868362781) rotate(0 5.503997802734375 9.599999999999994)"><text x="0" y="0" font-family="Virgil, Segoe UI Emoji" font-size="16px" fill="#000000" text-anchor="start" style="white-space: pre;" direction="ltr" dominant-baseline="text-before-edge">0</text></g><g transform="translate(362.0679080537292 310.6470065442489) rotate(0 9.967994689941406 16.80000000000001)"><text x="0" y="0" font-family="Virgil, Segoe UI Emoji" font-size="28px" fill="#000000" text-anchor="start" style="white-space: pre;" direction="ltr" dominant-baseline="text-before-edge">2</text></g><g transform="translate(376.0679080537292 304.5080142064381) rotate(0 5.1199951171875 9.600000000000023)"><text x="0" y="0" font-family="Virgil, Segoe UI Emoji" font-size="16px" fill="#000000" text-anchor="start" style="white-space: pre;" direction="ltr" dominant-baseline="text-before-edge">4</text></g><g transform="translate(439.9236034395549 308.6724720643973) rotate(0 9.967994689941406 16.799999999999983)"><text x="0" y="0" font-family="Virgil, Segoe UI Emoji" font-size="28px" fill="#000000" text-anchor="start" style="white-space: pre;" direction="ltr" dominant-baseline="text-before-edge">2</text></g><g transform="translate(453.9236034395549 300.53772397994464) rotate(0 5.447998046875 9.599999999999994)"><text x="0" y="0" font-family="Virgil, Segoe UI Emoji" font-size="16px" fill="#000000" text-anchor="start" style="white-space: pre;" direction="ltr" dominant-baseline="text-before-edge">3</text></g><g transform="translate(527.7368562918 305.34621248666065) rotate(0 9.967994689941406 16.799999999999983)"><text x="0" y="0" font-family="Virgil, Segoe UI Emoji" font-size="28px" fill="#000000" text-anchor="start" style="white-space: pre;" direction="ltr" dominant-baseline="text-before-edge">2</text></g><g transform="translate(541.7368562918 296.54621248666064) rotate(0 5.6959991455078125 9.599999999999994)"><text x="0" y="0" font-family="Virgil, Segoe UI Emoji" font-size="16px" fill="#000000" text-anchor="start" style="white-space: pre;" direction="ltr" dominant-baseline="text-before-edge">2</text></g><g transform="translate(610.2280938196668 300.6894490778296) rotate(0 9.967994689941406 16.80000000000001)"><text x="0" y="0" font-family="Virgil, Segoe UI Emoji" font-size="28px" fill="#000000" text-anchor="start" style="white-space: pre;" direction="ltr" dominant-baseline="text-before-edge">2</text></g><g transform="translate(624.2280938196668 291.2241971622823) rotate(0 2.167999267578125 9.599999999999994)"><text x="0" y="0" font-family="Virgil, Segoe UI Emoji" font-size="16px" fill="#000000" text-anchor="start" style="white-space: pre;" direction="ltr" dominant-baseline="text-before-edge">1</text></g><g transform="translate(695.3803390097223 300.6894490778295) rotate(0 9.967994689941406 16.799999999999983)"><text x="0" y="0" font-family="Virgil, Segoe UI Emoji" font-size="28px" fill="#000000" text-anchor="start" style="white-space: pre;" direction="ltr" dominant-baseline="text-before-edge">2</text></g><g transform="translate(709.3803390097223 291.8894490778295) rotate(0 5.503997802734375 9.599999999999994)"><text x="0" y="0" font-family="Virgil, Segoe UI Emoji" font-size="16px" fill="#000000" text-anchor="start" style="white-space: pre;" direction="ltr" dominant-baseline="text-before-edge">0</text></g><g transform="translate(775.3036065880324 303.1360797179819) rotate(0 9.967994689941406 16.80000000000001)"><text x="0" y="0" font-family="Virgil, Segoe UI Emoji" font-size="28px" fill="#000000" text-anchor="start" style="white-space: pre;" direction="ltr" dominant-baseline="text-before-edge">2</text></g><g transform="translate(789.3036065880324 293.52053617126444) rotate(0 5.45599365234375 9.599999999999994)"><text x="0" y="0" font-family="Virgil, Segoe UI Emoji" font-size="16px" fill="#000000" text-anchor="start" style="white-space: pre;" direction="ltr" dominant-baseline="text-before-edge">-1</text></g><g transform="translate(858.4890483532126 301.50499262454696) rotate(0 9.967994689941406 16.799999999999983)"><text x="0" y="0" font-family="Virgil, Segoe UI Emoji" font-size="28px" fill="#000000" text-anchor="start" style="white-space: pre;" direction="ltr" dominant-baseline="text-before-edge">2</text></g><g transform="translate(872.4890483532126 292.70499262454695) rotate(0 8.983993530273438 9.599999999999994)"><text x="0" y="0" font-family="Virgil, Segoe UI Emoji" font-size="16px" fill="#000000" text-anchor="start" style="white-space: pre;" direction="ltr" dominant-baseline="text-before-edge">-2</text></g><g transform="translate(945.7522078519801 298.24281843767716) rotate(0 9.967994689941406 16.80000000000001)"><text x="0" y="0" font-family="Virgil, Segoe UI Emoji" font-size="28px" fill="#000000" text-anchor="start" style="white-space: pre;" direction="ltr" dominant-baseline="text-before-edge">2</text></g><g transform="translate(959.7522078519801 290.2583619843946) rotate(0 8.735992431640625 9.599999999999994)"><text x="0" y="0" font-family="Virgil, Segoe UI Emoji" font-size="16px" fill="#000000" text-anchor="start" style="white-space: pre;" direction="ltr" dominant-baseline="text-before-edge">-3</text></g><g transform="translate(1038.7241721777696 300.6894490778295) rotate(0 9.967994689941406 16.799999999999983)"><text x="0" y="0" font-family="Virgil, Segoe UI Emoji" font-size="28px" fill="#000000" text-anchor="start" style="white-space: pre;" direction="ltr" dominant-baseline="text-before-edge">2</text></g><g transform="translate(1052.7241721777696 291.0739055311121) rotate(0 8.407989501953125 9.599999999999994)"><text x="0" y="0" font-family="Virgil, Segoe UI Emoji" font-size="16px" fill="#000000" text-anchor="start" style="white-space: pre;" direction="ltr" dominant-baseline="text-before-edge">-4</text></g><g transform="translate(350.05243240610025 14.939891920457086) rotate(0 27.579994201660156 16.799999999999997)"><text x="0" y="0" font-family="Virgil, Segoe UI Emoji" font-size="28px" fill="#000000" text-anchor="start" style="white-space: pre;" direction="ltr" dominant-baseline="text-before-edge">256</text></g><g transform="translate(455.2575499326517 21.32434837373964) rotate(0 9.631996154785156 16.799999999999997)"><text x="0" y="0" font-family="Virgil, Segoe UI Emoji" font-size="28px" fill="#000000" text-anchor="start" style="white-space: pre;" direction="ltr" dominant-baseline="text-before-edge">0</text></g><g transform="translate(536.8119046043969 18.06217418686984) rotate(0 9.631996154785156 16.799999999999997)"><text x="0" y="0" font-family="Virgil, Segoe UI Emoji" font-size="28px" fill="#000000" text-anchor="start" style="white-space: pre;" direction="ltr" dominant-baseline="text-before-edge">0</text></g><g transform="translate(620.8128899162944 16.43108709343491) rotate(0 9.631996154785156 16.799999999999997)"><text x="0" y="0" font-family="Virgil, Segoe UI Emoji" font-size="28px" fill="#000000" text-anchor="start" style="white-space: pre;" direction="ltr" dominant-baseline="text-before-edge">0</text></g><g transform="translate(707.2605058683444 22.139891920457075) rotate(0 12.753997802734375 16.799999999999997)"><text x="0" y="0" font-family="Virgil, Segoe UI Emoji" font-size="28px" fill="#000000" text-anchor="start" style="white-space: pre;" direction="ltr" dominant-baseline="text-before-edge">16</text></g><g transform="translate(787.1837734466546 16.43108709343491) rotate(0 9.631996154785156 16.799999999999997)"><text x="0" y="0" font-family="Virgil, Segoe UI Emoji" font-size="28px" fill="#000000" text-anchor="start" style="white-space: pre;" direction="ltr" dominant-baseline="text-before-edge">0</text></g><g transform="translate(867.9225845716824 19.69326128030471) rotate(0 9.631996154785156 16.799999999999997)"><text x="0" y="0" font-family="Virgil, Segoe UI Emoji" font-size="28px" fill="#000000" text-anchor="start" style="white-space: pre;" direction="ltr" dominant-baseline="text-before-edge">0</text></g><g transform="translate(954.3702005237321 17.24663064015232) rotate(0 9.631996154785156 16.799999999999997)"><text x="0" y="0" font-family="Virgil, Segoe UI Emoji" font-size="28px" fill="#000000" text-anchor="start" style="white-space: pre;" direction="ltr" dominant-baseline="text-before-edge">0</text></g><g transform="translate(1053.0509696765441 20.508804827022203) rotate(0 3.7939987182617188 16.799999999999997)"><text x="0" y="0" font-family="Virgil, Segoe UI Emoji" font-size="28px" fill="#000000" text-anchor="start" style="white-space: pre;" direction="ltr" dominant-baseline="text-before-edge">1</text></g><g transform="translate(415.2959161434967 14.80000000000004) rotate(0 8.75 16.799999999999997)"><text x="0" y="0" font-family="Virgil, Segoe UI Emoji" font-size="28px" fill="#000000" text-anchor="start" style="white-space: pre;" direction="ltr" dominant-baseline="text-before-edge">+</text></g><g transform="translate(494.40364017508955 18.877717733587303) rotate(0 8.75 16.799999999999997)"><text x="0" y="0" font-family="Virgil, Segoe UI Emoji" font-size="28px" fill="#000000" text-anchor="start" style="white-space: pre;" direction="ltr" dominant-baseline="text-before-edge">+</text></g><g transform="translate(578.404625486987 17.246630640152404) rotate(0 8.75 16.799999999999997)"><text x="0" y="0" font-family="Virgil, Segoe UI Emoji" font-size="28px" fill="#000000" text-anchor="start" style="white-space: pre;" direction="ltr" dominant-baseline="text-before-edge">+</text></g><g transform="translate(666.4833285324719 18.06217418686984) rotate(0 8.75 16.799999999999997)"><text x="0" y="0" font-family="Virgil, Segoe UI Emoji" font-size="28px" fill="#000000" text-anchor="start" style="white-space: pre;" direction="ltr" dominant-baseline="text-before-edge">+</text></g><g transform="translate(748.037683204217 15.615543546717475) rotate(0 8.75 16.799999999999997)"><text x="0" y="0" font-family="Virgil, Segoe UI Emoji" font-size="28px" fill="#000000" text-anchor="start" style="white-space: pre;" direction="ltr" dominant-baseline="text-before-edge">+</text></g><g transform="translate(832.0386685161147 15.615543546717475) rotate(0 8.75 16.799999999999997)"><text x="0" y="0" font-family="Virgil, Segoe UI Emoji" font-size="28px" fill="#000000" text-anchor="start" style="white-space: pre;" direction="ltr" dominant-baseline="text-before-edge">+</text></g><g transform="translate(913.5930231878599 16.43108709343494) rotate(0 8.75 16.799999999999997)"><text x="0" y="0" font-family="Virgil, Segoe UI Emoji" font-size="28px" fill="#000000" text-anchor="start" style="white-space: pre;" direction="ltr" dominant-baseline="text-before-edge">+</text></g><g transform="translate(1003.3028133267796 17.246630640152404) rotate(0 8.75 16.799999999999997)"><text x="0" y="0" font-family="Virgil, Segoe UI Emoji" font-size="28px" fill="#000000" text-anchor="start" style="white-space: pre;" direction="ltr" dominant-baseline="text-before-edge">+</text></g><g transform="translate(1146.838477549051 10) rotate(0 54.863983154296875 21.599999999999994)"><text x="0" y="0" font-family="Virgil, Segoe UI Emoji" font-size="36px" fill="#000000" text-anchor="start" style="white-space: pre;" direction="ltr" dominant-baseline="text-before-edge">= 273</text></g><g transform="translate(359.8389549667097 475.48884261505583) rotate(0 12.753997802734375 16.80000000000001)"><text x="0" y="0" font-family="Virgil, Segoe UI Emoji" font-size="28px" fill="#000000" text-anchor="start" style="white-space: pre;" direction="ltr" dominant-baseline="text-before-edge">16</text></g><g transform="translate(441.3933096384551 473.9510168019256) rotate(0 9.631996154785156 16.80000000000001)"><text x="0" y="0" font-family="Virgil, Segoe UI Emoji" font-size="28px" fill="#000000" text-anchor="start" style="white-space: pre;" direction="ltr" dominant-baseline="text-before-edge">0</text></g><g transform="translate(526.2098384970702 469.0577555216209) rotate(0 9.631996154785156 16.80000000000001)"><text x="0" y="0" font-family="Virgil, Segoe UI Emoji" font-size="28px" fill="#000000" text-anchor="start" style="white-space: pre;" direction="ltr" dominant-baseline="text-before-edge">0</text></g><g transform="translate(606.1331060753805 467.426668428186) rotate(0 9.631996154785156 16.80000000000001)"><text x="0" y="0" font-family="Virgil, Segoe UI Emoji" font-size="28px" fill="#000000" text-anchor="start" style="white-space: pre;" direction="ltr" dominant-baseline="text-before-edge">0</text></g><g transform="translate(692.5807220274303 464.9800377880336) rotate(0 3.7939987182617188 16.80000000000001)"><text x="0" y="0" font-family="Virgil, Segoe UI Emoji" font-size="28px" fill="#000000" text-anchor="start" style="white-space: pre;" direction="ltr" dominant-baseline="text-before-edge">1</text></g><g transform="translate(786.3682298999374 462.5334071478812) rotate(0 9.631996154785156 16.80000000000001)"><text x="0" y="0" font-family="Virgil, Segoe UI Emoji" font-size="28px" fill="#000000" text-anchor="start" style="white-space: pre;" direction="ltr" dominant-baseline="text-before-edge">0</text></g><g transform="translate(876.0780200388572 459.2712329610113) rotate(0 9.631996154785156 16.80000000000001)"><text x="0" y="0" font-family="Virgil, Segoe UI Emoji" font-size="28px" fill="#000000" text-anchor="start" style="white-space: pre;" direction="ltr" dominant-baseline="text-before-edge">0</text></g><g transform="translate(948.6613956967105 453.56242813398916) rotate(0 9.631996154785156 16.80000000000001)"><text x="0" y="0" font-family="Virgil, Segoe UI Emoji" font-size="28px" fill="#000000" text-anchor="start" style="white-space: pre;" direction="ltr" dominant-baseline="text-before-edge">0</text></g><g transform="translate(1040.8178164757821 479.47329906833835) rotate(0 9.109992980957031 12)"><text x="0" y="0" font-family="Virgil, Segoe UI Emoji" font-size="20px" fill="#000000" text-anchor="start" style="white-space: pre;" direction="ltr" dominant-baseline="text-before-edge">16</text></g><g transform="translate(1046.5266213028044 451.0225362135322) rotate(0 2.7099990844726562 12)"><text x="0" y="0" font-family="Virgil, Segoe UI Emoji" font-size="20px" fill="#000000" text-anchor="start" style="white-space: pre;" direction="ltr" dominant-baseline="text-before-edge">1</text></g><g stroke-linecap="round"><g transform="translate(1037.5556422889126 480.47536517566533) rotate(0 11.60166456081015 -0.5977124923876431)"><path d="M1.04 0.37 C5.06 0.17, 19.44 -1.23, 23.08 -1.57 M0.13 -0.48 C4.04 -0.44, 17.62 -0.02, 21.83 0" stroke="#000000" stroke-width="2" fill="none"></path></g></g><mask></mask><g transform="translate(401.43167584929984 469.87329906833844) rotate(0 8.75 16.80000000000001)"><text x="0" y="0" font-family="Virgil, Segoe UI Emoji" font-size="28px" fill="#000000" text-anchor="start" style="white-space: pre;" direction="ltr" dominant-baseline="text-before-edge">+</text></g><g transform="translate(490.32592244150203 469.057755521621) rotate(0 8.75 16.80000000000001)"><text x="0" y="0" font-family="Virgil, Segoe UI Emoji" font-size="28px" fill="#000000" text-anchor="start" style="white-space: pre;" direction="ltr" dominant-baseline="text-before-edge">+</text></g><g transform="translate(567.80255937966 466.6111248814686) rotate(0 8.75 16.80000000000001)"><text x="0" y="0" font-family="Virgil, Segoe UI Emoji" font-size="28px" fill="#000000" text-anchor="start" style="white-space: pre;" direction="ltr" dominant-baseline="text-before-edge">+</text></g><g transform="translate(659.1434366120146 463.3489506945987) rotate(0 8.75 16.80000000000001)"><text x="0" y="0" font-family="Virgil, Segoe UI Emoji" font-size="28px" fill="#000000" text-anchor="start" style="white-space: pre;" direction="ltr" dominant-baseline="text-before-edge">+</text></g><g transform="translate(739.0667041903249 469.0577555216209) rotate(0 8.75 16.80000000000001)"><text x="0" y="0" font-family="Virgil, Segoe UI Emoji" font-size="28px" fill="#000000" text-anchor="start" style="white-space: pre;" direction="ltr" dominant-baseline="text-before-edge">+</text></g><g transform="translate(833.6697556095494 460.08677650772887) rotate(0 8.75 16.80000000000001)"><text x="0" y="0" font-family="Virgil, Segoe UI Emoji" font-size="28px" fill="#000000" text-anchor="start" style="white-space: pre;" direction="ltr" dominant-baseline="text-before-edge">+</text></g><g transform="translate(911.1463925477074 456.0090587741416) rotate(0 8.75 16.80000000000001)"><text x="0" y="0" font-family="Virgil, Segoe UI Emoji" font-size="28px" fill="#000000" text-anchor="start" style="white-space: pre;" direction="ltr" dominant-baseline="text-before-edge">+</text></g><g transform="translate(988.6230294858653 456.824602320859) rotate(0 8.75 16.80000000000001)"><text x="0" y="0" font-family="Virgil, Segoe UI Emoji" font-size="28px" fill="#000000" text-anchor="start" style="white-space: pre;" direction="ltr" dominant-baseline="text-before-edge">+</text></g><g transform="translate(1146.0229340023336 441.4225362135324) rotate(0 34.667991638183594 21.600000000000023)"><text x="0" y="0" font-family="Virgil, Segoe UI Emoji" font-size="36px" fill="#000000" text-anchor="start" style="white-space: pre;" direction="ltr" dominant-baseline="text-before-edge">= 17</text></g><g stroke-linecap="round"><g transform="translate(1125.6343453343973 71.88804827022165) rotate(0 96.30642919446768 -3.7874008175919727)"><path d="M-0.61 0.63 C31.08 -0.55, 158.98 -5.03, 190.9 -6.23 M1.27 -0.08 C33.28 -1.71, 161.2 -7.33, 193.22 -8.2" stroke="#000000" stroke-width="2" fill="none"></path></g></g><mask></mask><g stroke-linecap="round"><g transform="translate(1141.9452162687464 580.7872214219119) rotate(0 84.82289191214466 -3.5587234874416254)"><path d="M-0.75 0.29 C27.36 -1.05, 139.68 -6.09, 168.07 -7.41 M1.06 -0.6 C29.61 -1.8, 142.36 -4.94, 170.4 -5.91" stroke="#000000" stroke-width="2" fill="none"></path></g></g><mask></mask><g transform="translate(1224.3151144872088 457.5468845872719) rotate(0 12.753997802734375 16.80000000000001)"><text x="0" y="0" font-family="Virgil, Segoe UI Emoji" font-size="28px" fill="#000000" text-anchor="start" style="white-space: pre;" direction="ltr" dominant-baseline="text-before-edge">16</text></g><g transform="translate(1230.023919314231 429.09612173246575) rotate(0 3.7939987182617188 16.80000000000001)"><text x="0" y="0" font-family="Virgil, Segoe UI Emoji" font-size="28px" fill="#000000" text-anchor="start" style="white-space: pre;" direction="ltr" dominant-baseline="text-before-edge">1</text></g><g stroke-linecap="round"><g transform="translate(1221.0529403003393 463.34895069459884) rotate(0 11.023826488033365 -0.6764146560839208)"><path d="M0.09 0.36 C4.16 -0.1, 19.57 -1.47, 23.37 -1.72 M-1.32 -0.49 C2.66 -0.24, 17.82 0.23, 22.28 -0.22" stroke="#000000" stroke-width="2" fill="none"></path></g></g><mask></mask><g transform="translate(1147.6540210957687 508.2971070443635) rotate(0 87.4439697265625 21.600000000000023)"><text x="0" y="0" font-family="Virgil, Segoe UI Emoji" font-size="36px" fill="#000000" text-anchor="start" style="white-space: pre;" direction="ltr" dominant-baseline="text-before-edge">= 17.0625</text></g></svg>